# xmcd
#
# Track frame offsets:
#	150
#	17889
#	48843
#	64012
#	73945
#	86690
#	110615
#	125780
#	141295
#	157163
#	179893
#
# Disc length: 3062 seconds
#
# Revision: 17
# Processed by: cddbd v1.5.2PL0 Copyright (c) Steve Scherf et al.
# Submitted via: Jack! The Knife 20 Magnifico
#
DISCID=ac0bf40b
DTITLE=Amy Winehouse - Frank
DYEAR=2003
DGENRE=Soul
TTITLE0=Intro - Stronger Than Me
TTITLE1=You Sent Me Flying - Cherry
TTITLE2=Fuck Me Pumps
TTITLE3=I Heard Love Is Blind
TTITLE4=(There Is) No Greater Love
TTITLE5=In My Bed
TTITLE6=Take The Box
TTITLE7=October Song
TTITLE8=What Is It About Men?
TTITLE9=Help Yourself
TTITLE10=Amy Amy Amy - Outro
EXTD=Winehouse, Remi, Gordon, Hogarth, Rowe
EXTT0=Winehouse, Remi
EXTT1=Winehouse, Howard, Remi
EXTT2=Winehouse, Remi
EXTT3=Amy Winehouse
EXTT4=Jones, Symes
EXTT5=Remi, Winehouse
EXTT6=Smith, Winehouse
EXTT7=Rowe, Skarbek, Winehouse
EXTT8=Cole, Cooper, Howard, Jackson, Smith, Watson, Williams, Winehouse
EXTT9=Hogarth, Winehouse
EXTT10=Rowe, Skarbek, Winehouse, Remi, Fields, McHugh, Moody, Cooper, Jackson, Smith
PLAYORDER=
